<svg xmlns="http://www.w3.org/2000/svg" viewBox="0 0 512 512">
  <rect width="512" height="512" fill="none" />
  <ellipse cx="180" cy="170" rx="140" ry="120" fill="#6ABD6A" />
  <ellipse cx="360" cy="250" rx="115" ry="95" fill="#6ABD6A" />
  <path
    d="M250 420c-8 0-16-3-22-9-10-10-12-25-7-38 19-46 18-106-5-178-19-58-45-97-71-123-9-9-9-23 0-32 9-9 23-9 32 0 31 30 61 76 83 143 26 80 27 150 4 208-4 10-14 18-24 19h-2z"
    fill="#3E8E3E"
  />
  <path
    d="M278 214c-6 0-12-2-17-7-7-7-7-19 0-26 20-20 43-34 64-44 10-5 22-1 27 9 5 10 1 22-9 27-19 9-37 21-54 38-5 5-11 7-16 7z"
    fill="#2F7A2F"
  />
</svg>
